<svg width="306" height="42" viewBox="0 0 306 42" fill="none" xmlns="http://www.w3.org/2000/svg">
<path d="M63.2492 33.9343V31.4039C64.6952 33.8259 67.4425 34.3681 68.9969 34.3681C73.624 34.3681 77.5643 30.4279 77.5643 24.644C77.5643 19.1132 74.0216 14.8838 68.8162 14.8838C67.0449 14.8838 65.0205 15.4983 63.7553 17.4142V8.08777H57.4654V33.9343H63.2492ZM63.6107 24.5717C63.6107 21.969 65.2736 20.3784 67.4787 20.3784C69.5392 20.3784 71.2382 21.969 71.2382 24.5717C71.2382 27.1745 69.5392 28.8735 67.4787 28.8735C65.2736 28.8735 63.6107 27.2106 63.6107 24.5717Z" fill="#170F49"/>
<path d="M93.3814 15.0284C93.0922 14.9199 92.6946 14.8838 92.2247 14.8838C89.7665 14.8838 87.9591 16.2213 86.9831 18.4987V15.3176H80.7293V33.9343H87.0192V27.1022C87.0192 23.1981 88.7905 20.7761 91.9716 20.7761C92.6223 20.7761 93.0922 20.8484 93.3814 20.993V15.0284Z" fill="#170F49"/>
<path d="M95.8031 33.9343H102.093V15.3176H95.8031V33.9343ZM95.5501 10.1121C95.5501 11.9919 96.996 13.3655 98.9119 13.3655C100.828 13.3655 102.31 11.9919 102.31 10.1121C102.31 8.23237 100.828 6.8587 98.9119 6.8587C96.996 6.8587 95.5501 8.23237 95.5501 10.1121Z" fill="#170F49"/>
<path d="M110.726 24.7163L104.327 33.9343H111.304L114.341 29.0181L117.377 33.9343H124.354L117.955 24.7163L124.498 15.3176H117.341L114.341 20.4869L111.34 15.3176H104.183L110.726 24.7163Z" fill="#170F49"/>
<path d="M131.745 18.9686H134.131V26.4153C134.131 30.7532 136.589 33.1391 140.638 33.1391C142.481 33.1391 143.891 32.7414 144.867 32.2715V26.9576C144.108 27.4998 143.204 27.6444 142.445 27.6444C141.288 27.6444 140.421 26.9576 140.421 25.367V18.9686H144.361V14.0885H140.421V9.06379H134.312V14.0885H131.745V18.9686Z" fill="#4A3AFF"/>
<path d="M164.204 24.8971C164.385 24.3187 164.566 23.1981 164.566 22.222C164.566 17.125 160.951 13.6547 155.637 13.6547C150.142 13.6547 145.949 17.9203 145.949 23.415C145.949 28.9096 150.034 33.1391 156.396 33.1391C159.541 33.1391 161.999 32.3438 164.457 30.1387L161.276 26.1623C160.373 27.0299 158.89 27.8974 156.866 27.8974C154.733 27.8974 152.709 26.9937 152.42 24.8971H164.204ZM155.492 18.6433C157.119 18.6433 158.384 19.6555 158.493 21.246V21.2822H152.311C152.42 19.5832 153.866 18.6433 155.492 18.6433Z" fill="#4A3AFF"/>
<path d="M167.657 14.0885V32.7053H173.947V22.9089C173.947 20.5953 175.14 19.1494 176.912 19.1494C178.791 19.1494 179.804 20.3061 179.804 22.4751V32.7053H186.093V22.9089C186.093 20.5953 187.359 19.1494 189.058 19.1494C190.937 19.1494 191.95 20.3061 191.95 22.4751V32.7053H198.24V21.3545C198.24 16.5466 195.565 13.6547 191.046 13.6547C187.901 13.6547 186.202 15.0645 184.937 16.6912C183.671 14.703 181.647 13.6547 178.9 13.6547C176.695 13.6547 174.923 14.4139 173.658 16.2936V14.0885H167.657Z" fill="#4A3AFF"/>
<path d="M202.5 39.9351H208.79V30.8978C209.983 32.633 212.08 33.1391 213.851 33.1391C219.057 33.1391 222.599 28.9096 222.599 23.3788C222.599 17.595 218.55 13.6547 213.923 13.6547C212.405 13.6547 209.839 14.197 208.284 16.6189V14.0885H202.5V39.9351ZM208.646 23.4511C208.646 20.8122 210.309 19.1494 212.514 19.1494C214.574 19.1494 216.273 20.8484 216.273 23.4511C216.273 26.0538 214.574 27.6444 212.514 27.6444C210.309 27.6444 208.646 26.0538 208.646 23.4511Z" fill="#4A3AFF"/>
<path d="M225.547 27.1383C225.547 31.0424 227.789 33.1391 231.693 33.1391C232.958 33.1391 233.934 32.9222 234.621 32.5968V27.536C234.151 27.7167 233.717 27.7528 233.392 27.7528C231.946 27.7528 231.837 26.8491 231.837 25.9815V6.8587H225.547V27.1383Z" fill="#4A3AFF"/>
<path d="M242.397 33.1391C244.855 33.1391 246.482 32.0546 247.205 30.6448V32.7053H253.025V21.0653C253.025 16.4382 249.844 13.6547 244.458 13.6547C240.807 13.6547 237.806 15.2453 236.216 17.2696L239.505 21.2099C240.481 20.0893 242 19.0048 244.132 19.0048C245.687 19.0048 247.024 19.547 247.024 21.1014V21.1376L242.217 22.0774C238.312 22.9089 236.143 24.7886 236.143 27.536C236.143 30.8255 238.782 33.1391 242.397 33.1391ZM247.024 24.9332V25.2224C247.024 27.2829 245.868 28.6204 243.879 28.6204C242.759 28.6204 242.144 28.042 242.144 27.1383C242.144 26.2346 242.867 25.7646 243.988 25.5116L247.024 24.9332Z" fill="#4A3AFF"/>
<path d="M255.266 18.9686H257.652V26.4153C257.652 30.7532 260.11 33.1391 264.159 33.1391C266.002 33.1391 267.412 32.7414 268.388 32.2715V26.9576C267.629 27.4998 266.725 27.6444 265.966 27.6444C264.809 27.6444 263.942 26.9576 263.942 25.367V18.9686H267.882V14.0885H263.942V9.06379H257.833V14.0885H255.266V18.9686Z" fill="#4A3AFF"/>
<path d="M287.725 24.8971C287.906 24.3187 288.087 23.1981 288.087 22.222C288.087 17.125 284.472 13.6547 279.158 13.6547C273.663 13.6547 269.47 17.9203 269.47 23.415C269.47 28.9096 273.555 33.1391 279.917 33.1391C283.062 33.1391 285.52 32.3438 287.978 30.1387L284.797 26.1623C283.894 27.0299 282.411 27.8974 280.387 27.8974C278.254 27.8974 276.23 26.9937 275.941 24.8971H287.725ZM279.013 18.6433C280.64 18.6433 281.905 19.6555 282.014 21.246V21.2822H275.832C275.941 19.5832 277.387 18.6433 279.013 18.6433Z" fill="#4A3AFF"/>
<path d="M297.613 33.1391C302.24 33.1391 305.349 30.5725 305.349 27.2468C305.349 23.5596 302.493 22.5835 299.565 21.4268C296.926 20.3061 295.805 20.1254 295.805 19.4386C295.805 18.7517 296.637 18.3541 297.613 18.3541C299.348 18.3541 300.324 19.1855 300.939 20.2338L304.843 17.4142C303.686 15.2091 300.975 13.6547 297.794 13.6547C293.6 13.6547 290.094 15.6791 290.094 19.4024C290.094 22.4028 292.154 23.8849 295.805 25.1863C298.372 26.09 299.637 26.4153 299.637 27.3914C299.637 28.0782 298.95 28.4397 297.685 28.4397C295.805 28.4397 294.36 27.2829 293.492 25.8008L289.479 28.8735C291.034 31.6208 294.143 33.1391 297.613 33.1391Z" fill="#4A3AFF"/>
<path fill-rule="evenodd" clip-rule="evenodd" d="M35.4422 12.5482C38.6838 12.5482 41.3117 9.92034 41.3117 6.6787C41.3117 3.43707 38.6838 0.809204 35.4422 0.809204C32.2006 0.809204 29.5727 3.43707 29.5727 6.6787C29.5727 9.92034 32.2006 12.5482 35.4422 12.5482Z" fill="#8055FA"/>
<path fill-rule="evenodd" clip-rule="evenodd" d="M35.442 26.631C38.6836 26.631 41.3115 24.0035 41.3115 20.7623C41.3115 17.5211 38.6836 14.8936 35.442 14.8936C32.2004 14.8936 29.5725 17.5211 29.5725 20.7623C29.5725 24.0035 32.2004 26.631 35.442 26.631Z" fill="#7550FB"/>
<path fill-rule="evenodd" clip-rule="evenodd" d="M35.442 41.2392C38.6836 41.2392 41.3115 38.6113 41.3115 35.3697C41.3115 32.128 38.6836 29.5002 35.442 29.5002C32.2004 29.5002 29.5725 32.128 29.5725 35.3697C29.5725 38.6113 32.2004 41.2392 35.442 41.2392Z" fill="#6A4AFC"/>
<path d="M20.8347 26.6308C24.0759 26.6308 26.7034 24.0033 26.7034 20.7621C26.7034 17.5209 24.0759 14.8934 20.8347 14.8934C17.5935 14.8934 14.966 17.5209 14.966 20.7621C14.966 24.0033 17.5935 26.6308 20.8347 26.6308Z" fill="#6045FD"/>
<path d="M20.8347 26.6308C24.0759 26.6308 26.7034 24.0033 26.7034 20.7621C26.7034 17.5209 24.0759 14.8934 20.8347 14.8934C17.5935 14.8934 14.966 17.5209 14.966 20.7621C14.966 24.0033 17.5935 26.6308 20.8347 26.6308Z" stroke="#F7F7FB"/>
<path fill-rule="evenodd" clip-rule="evenodd" d="M20.834 41.2391C24.0752 41.2391 26.7027 38.6113 26.7027 35.3696C26.7027 32.128 24.0752 29.5001 20.834 29.5001C17.5928 29.5001 14.9653 32.128 14.9653 35.3696C14.9653 38.6113 17.5928 41.2391 20.834 41.2391Z" fill="#553FFE"/>
<path fill-rule="evenodd" clip-rule="evenodd" d="M6.75036 41.2391C9.99199 41.2391 12.6199 38.6113 12.6199 35.3696C12.6199 32.128 9.99199 29.5001 6.75036 29.5001C3.50872 29.5001 0.880859 32.128 0.880859 35.3696C0.880859 38.6113 3.50872 41.2391 6.75036 41.2391Z" fill="#4A3AFF"/>
</svg>
